# xmcd
#
# Track frame offsets: 
#        150
#        11410
#        23656
#        35608
#        47831
#        60874
#        71874
#        81797
#        92948
#        106266
#        118809
#        129555
#        139686
#        151369
#        162490
#        175432
#        186549
#        198895
#        210226
#        220896
#        230670
#        240775
#        253518
#        263594
#        272984
#
# Disc length: 3797 seconds
#
# Revision: 0
# Processed by: cddbd v1.5.2PL0 Copyright (c) Steve Scherf et al.
# Submitted via: ExactAudioCopyFreeDBPlugin 1.0
#
DISCID=600ed319
DTITLE=Various Artist - 25 Original Vocal Groups Sing About "The Grea
DTITLE=t Ladies of Doo Wop"
DYEAR=2002
DGENRE=Rhythm and Blues
TTITLE0=The Rainbows - Mary Lee
TTITLE1=The Charts - Deserie
TTITLE2=Lewis Lymon and The Teenchords - Lydia
TTITLE3=The Paragons - Florence
TTITLE4=The Crests - My Juanita
TTITLE5=Jackie and The Starlites - Valerie
TTITLE6=The Classics  - Cinderella
TTITLE7=The Five Thrills - Gloria
TTITLE8=The Three Friends - Blanche
TTITLE9=The Pelicans - Aurelia
TTITLE10=Little Bobby Rivera and The Hemlocks - Cora Lee
TTITLE11=The Unique Teens - Jennie
TTITLE12=The Turbans - Sister Sookey
TTITLE13=The Travelers - Lenora
TTITLE14=The Temptations (New Jersey group) - Barbara
TTITLE15=Little Butchie Saunders - Linda Lou
TTITLE16=The Thrillers - Lizabeth
TTITLE17=The Bonnevilles - Lorraine
TTITLE18=The Vocaltones - Wanna Lee
TTITLE19=The Concords - Merlena
TTITLE20=The Chandeliers - Dolly
TTITLE21=The Empires - Linda
TTITLE22=The Squires - Sindy
TTITLE23=The Velons - Shelly
TTITLE24=The Valentines - Tonight Kathleen
EXTD=
EXTT0=
EXTT1=
EXTT2=
EXTT3=
EXTT4=
EXTT5=
EXTT6=
EXTT7=
EXTT8=
EXTT9=
EXTT10=
EXTT11=
EXTT12=
EXTT13=
EXTT14=
EXTT15=
EXTT16=
EXTT17=
EXTT18=
EXTT19=
EXTT20=
EXTT21=
EXTT22=
EXTT23=
EXTT24=
PLAYORDER=
